<svg width="500" height="500" viewBox="0 0 500 500" xmlns="http://www.w3.org/2000/svg">
  <defs>
    <linearGradient id="hero-grad" x1="0%" y1="0%" x2="100%" y2="100%">
      <stop offset="0%" style="stop-color:#8a2be2"/>
      <stop offset="100%" style="stop-color:#00f0b5"/>
    </linearGradient>
    <filter id="hero-shadow" x="-30%" y="-30%" width="160%" height="160%">
      <feDropShadow dx="0" dy="10" stdDeviation="15" flood-color="#000000" flood-opacity="0.3"/>
    </filter>
  </defs>
  
  <g transform="rotate(15, 250, 250)">
    <!-- Concentric Circles -->
    <circle cx="250" cy="250" r="200" stroke="url(#hero-grad)" stroke-width="2" fill="none" opacity="0.2" stroke-dasharray="10 10"/>
    <circle cx="250" cy="250" r="150" stroke="url(#hero-grad)" stroke-width="1.5" fill="none" opacity="0.3"/>
    <circle cx="250" cy="250" r="100" stroke="#00f0b5" stroke-width="1" fill="none" opacity="0.5"/>
    
    <!-- Floating Cube -->
    <g transform="translate(180, 180) rotate(45, 70, 70)" filter="url(#hero-shadow)">
      <rect x="0" y="0" width="140" height="140" rx="20" fill="#1c1f48" stroke="url(#hero-grad)" stroke-width="2"/>
      <path d="M 70 20 L 70 120" stroke="#8a2be2" stroke-width="2" opacity="0.5"/>
      <path d="M 20 70 L 120 70" stroke="#00f0b5" stroke-width="2" opacity="0.5"/>
      <circle cx="70" cy="70" r="10" fill="url(#hero-grad)"/>
    </g>

    <!-- Satellite elements -->
    <circle cx="100" cy="100" r="15" fill="#1c1f48" stroke="#8a2be2" stroke-width="2"/>
    <circle cx="400" cy="400" r="20" fill="#1c1f48" stroke="#00f0b5" stroke-width="2"/>
    <rect x="350" y="80" width="40" height="40" rx="10" fill="none" stroke="url(#hero-grad)" stroke-width="2" transform="rotate(-30, 370, 100)"/>
     <rect x="80" y="350" width="30" height="30" rx="5" fill="none" stroke="url(#hero-grad)" stroke-width="2" transform="rotate(60, 95, 365)"/>
  </g>
</svg>